<svg id="art" xmlns="http://www.w3.org/2000/svg" viewBox="0 0 600 600"><defs><style>.cls-1{fill:#fff;}.cls-2{fill:#121212;}.cls-3{fill:#2c2c2e;}</style></defs><circle class="cls-1" cx="300" cy="300" r="300"/><path class="cls-2" d="M519.36,384.72c-7.73-14.09-17.49-21.07-30.59-29.12C473.66,346.31,431,330.43,378.25,349c-13.14,4.62-21.12,15-23.65,28.88-.6,3.3-1.85,5.12-4.71,6.37-9.83,4.3-28.05,13.93-42.89,8.85-7.65-2.62-11.23-10.92-11.05-18.92.5-22.88,16.41-40.6,23.55-53.35,18.36-32.81,23.42-55.59,18.85-88.05-.53-3.76-.68-3.8,2.83-6.09a46.16,46.16,0,0,0,20.42-28.83,58.32,58.32,0,0,0-1.38-30.08C356.41,155,346.16,144,329,145.55c-8.93.83-12.62.79-25.33,3.17-2.87.54-3.45,1.3-6.06-1.75-14-16.41-32.42-31.64-70.84-35-23-2-45.11,3.41-66.07,12.69-2.36,1-4.5,2-6.14,2.7a6.15,6.15,0,0,1-5.42-.23,24,24,0,0,0-7.88-2.38C128.87,123.14,118,129,111.65,139c-5.83,9.12-8.39,20.33-.06,31a60.9,60.9,0,0,0-10.26,23.44c-2.66,13.86,1.78,28.63,11.45,36.3,8.23,6.52,17.69,9.89,27.81,11.39,13.58,2,27.33,1.32,40-3.67,16.4-6.46,34.22-12.71,50.59-11.6,15.86,1.23,22.34,8.31,26.5,19,6.74,17.37.49,37.29-19.6,74.09-8.92,16.33-28.74,41.33-30,78.1-.3,9.09,2.77,54.24,57.85,68.67,10.39,2.72,50,13.15,98.35-16.77a10.15,10.15,0,0,1,11.47.49c10.3,7.89,22.25,7.19,34.89,5.07C423,452.42,434,446.84,445,442.06c15.92-6.93,32.33-8.64,49.07-11.32,22.32-3.57,27.78-12.07,29.48-17.89C526.25,403.59,524.07,393.31,519.36,384.72ZM137.69,132.16c9.78-.11,19.21,10,19.25,20.63,0,11.62-9,20.66-20.84,20.79-11.12.12-22-8.61-22.33-17.82C113.38,143,124.21,132.31,137.69,132.16Zm47.48,92.09c-5.26,5.06-11.92,7.3-19,8.29-4.1.57-8.28.58-12.43.85-9.17-.17-18.28-1.07-26.94-4-10.45-3.53-18.56-12.7-19.53-23.73-1-11.66,6.83-18,17.64-13.7,15,6,30.3,9,46.44,6.49a20.4,20.4,0,0,1,8.28.26C191.81,202.22,194.34,215.43,185.17,224.25Zm15.12-44.84c-13.33,0-21.73-7.4-21.73-19.14s9.12-21.19,20.48-21.08c12.33.11,21.83,8.6,22,19.65C221.14,170.65,212.31,179.42,200.29,179.41ZM353.76,186c.65,2.58-.28,11.6-5.77,18.35-19.57-10-38-18.22-62-20.05a37,37,0,0,0,1.68-6.53l.06,0c15.23-2,27.08-1.24,50.61,2.15.77.11,4.42.56,5.18.71C350,181.81,353,183,353.76,186ZM329.83,154.5c11,.51,17.56,5.88,21.27,18.58a160.86,160.86,0,0,0-62.75-2.16,51.08,51.08,0,0,0,.69-9,16.33,16.33,0,0,1,2.64-1C304.1,157.21,316.65,153.89,329.83,154.5Zm-54.08,24.3c-2.43,12.09-9,20.71-15.05,23a3.34,3.34,0,0,1-4.44-3.35,8.23,8.23,0,0,1,1.84-4.33c9.18-12.21,11.16-25.92,8.81-40.64-.49-3.07-1.83-9.8,1.61-10.26a3.14,3.14,0,0,1,2.91,1.39C279.63,156.37,278,167.47,275.75,178.8Zm7.16,16.86c-1.08-.94.26-1.86.91-4.94,21.26,0,39.61,11.83,57.75,20.31-.39,2.34-3,3.84-4.58,5-10,7.44-25.24,5.86-34.11-2.92C297.17,207.46,289,201,282.91,195.66Zm199.5,166.28a51.3,51.3,0,0,1,13.14,10.45c-6.61,2.37-12.75,4.59-18.91,6.78-1.9.67-3.46-.28-5.1-1.11-3.38-1.72-6.83-3.31-11-5.31,5.37-4,10.16-7.35,14.76-11C477.86,359.76,480.14,360.57,482.41,361.94Zm-11.85-4.72c-5.76,4.26-9.84,6.63-14.74,10.32a7,7,0,0,1-6.59,1.06c-4-1.13-9.6-1.63-13.59-2.76C444.76,353.08,455.17,350.22,470.56,357.22ZM414.42,352a14.53,14.53,0,0,1,6.25-3.32,67.13,67.13,0,0,1,21.61,1.63c-7.16,4.69-10.39,11.07-15.1,14.32-5.21.78-15.37.91-22.16,2.08A49.46,49.46,0,0,1,414.42,352Zm-48.84,24.72c.93-12.9,21.23-25.37,38.94-25.63-2.9,4.86-6.22,10.34-8.76,14.48a7.58,7.58,0,0,1-4.84,3.66A159,159,0,0,0,365.58,376.76ZM412.2,444.1c-10.54,5-23.83,3.55-33.85-4,3.63-4,10.87-7,14.61-8.66C399.2,435.64,406.16,440,412.2,444.1Zm22.66-5.91c-6.31,2.61-12.76,4.91-19.66-1a120.88,120.88,0,0,0-13.84-10.1c5.64-3.77,11.14-5.46,16.62-7.48a4.06,4.06,0,0,1,4.27,1c4.5,3.87,9.1,7.63,13.56,11.54C440,435.83,439.61,436.22,434.86,438.19Zm21.46-8.71c-5.19,1.29-9.74,4.4-14.56-1-3.23-3.63-10.35-9.24-13.08-12,5.73-1.45,13-3.65,17.77-4.42s13.41,7.42,15,14.32C461.83,428.17,458.58,428.92,456.32,429.48Zm16.17-3.35a3.92,3.92,0,0,1-4.17-1.42c-3.62-5-5.07-9.13-11.79-15.27,15.58-4.74,23.76-2.22,30.7,12.55a1.34,1.34,0,0,1-1.07,1.89C481.22,424.54,476.47,425.46,472.49,426.13Zm23.75-4.34c-2.49-.64-9.83-11.32-10.36-14-.89-4.36,1-4.93,3.41-4.49,8.37,1.56,17.9,4,25.65,9.38C511.19,418.9,501.42,423.13,496.24,421.79Zm-15.06-36.93c6-3.39,12-4.19,18.26-5.05,2.18-.29,4,.84,5.56,2.34,5.58,5.37,8.53,12,9.57,19.74C490.85,397.48,488.12,395.4,481.18,384.86Z"/><path class="cls-3" d="M109.66,413.67c-1.78-10,3.3-17.26,13.18-18.8,7.82-1.22,15.54,5,17,13.8,1.58,9.19-3.28,15.91-12.65,17.53C118.3,427.75,111.27,422.74,109.66,413.67ZM125.72,419a7.82,7.82,0,0,0,6.49-9.31A8.2,8.2,0,0,0,123,403c-3.9.64-6.45,4.43-6,8.9A7.66,7.66,0,0,0,125.72,419Z"/><path class="cls-3" d="M424.51,284.63c-8.14,2.86-15.07-.46-17.59-7.84-2.76-8.77,2.05-16,9.36-18.28,6.7-2.12,14.37,1.15,16.55,7.86C436,276.1,431.66,282.32,424.51,284.63Zm-7.14-18.82c-3.82,1.54-5.51,5.2-4.19,8.36s5.31,4.57,8.57,3.24,5.2-5.46,3.73-8.33C423.67,265.56,420.67,264.63,417.37,265.81Z"/><path class="cls-3" d="M137.82,334.44c-5.69.53-10.3,5.77-9.36,12.95a9.81,9.81,0,0,0,11.68,8.4c6.93-1.4,9.39-6.94,8.33-12.59C147.21,336.51,143.27,333.94,137.82,334.44Zm4.63,9.82a4.25,4.25,0,0,1-8.38,1.48l0-.26A4.25,4.25,0,0,1,142.4,344Z"/><path class="cls-3" d="M420.77,233.49c-1.47-3.49-.4-6.3,3.1-7.85a5.78,5.78,0,0,1,7.89,3.25c1.6,4-.87,6.3-3.62,7.65C424.54,238.31,421.76,235.62,420.77,233.49Z"/><path class="cls-3" d="M98.67,314.23c.22,2.93-.87,4.85-3.82,5.36-3.5.6-6.46-1-6.88-4.6-.39-3.38,2-6.91,5.16-6.94C98,308,98.6,313.31,98.67,314.23Z"/><path class="cls-2" d="M152.22,221.05a60.7,60.7,0,0,1-28.72-6c-3-1.45-6-3.24-7.63-6.42a4.11,4.11,0,0,1,.61-5.06c1.57-1.59,3.23-.94,4.86.25,12.7,9.29,27.07,9.24,41.73,7.26,2.56-.35,5-1.28,7.6-1.71s4.88.14,5.65,2.89-1.27,4.3-3.49,5.3C166.28,220.55,159.28,221.05,152.22,221.05Z"/><path class="cls-2" d="M135.7,140.39c7.58-.14,12.46,3.9,12.74,10.53a13.12,13.12,0,0,1-12.59,14c-6.85.26-11.88-4.95-12-12.38C123.8,144.71,127.86,140.53,135.7,140.39Z"/><path class="cls-2" d="M200.34,146.64c7.51.09,12.18,4.34,12.17,11.11a13,13,0,0,1-13.18,13.38c-6.92-.11-11.54-5.35-11.38-12.92S192.36,146.55,200.34,146.64Z"/></svg>