<svg xmlns="http://www.w3.org/2000/svg" viewBox="0 0 64 64"><path d="M32,.79A32,32,0,0,0,21.89,63.15c1.6.3,2.18-.69,2.18-1.54s0-2.77,0-5.44c-8.91,1.93-10.78-4.29-10.78-4.29-1.46-3.7-3.56-4.68-3.56-4.68-2.9-2,.22-2,.22-2,3.21.23,4.9,3.3,4.9,3.3,2.86,4.89,7.49,3.48,9.32,2.66a6.86,6.86,0,0,1,2-4.28c-7.11-.8-14.58-3.55-14.58-15.81a12.36,12.36,0,0,1,3.3-8.59,11.5,11.5,0,0,1,.31-8.47s2.69-.86,8.8,3.28a30.52,30.52,0,0,1,16,0c6.11-4.14,8.79-3.28,8.79-3.28a11.47,11.47,0,0,1,.32,8.47,12.35,12.35,0,0,1,3.29,8.59c0,12.29-7.48,15-14.61,15.79C39,47.9,40,49.85,40,52.83c0,4.28,0,7.73,0,8.78,0,.86.58,1.85,2.2,1.54A32,32,0,0,0,32,.79Z"/></svg>